<svg width="24" height="28" viewBox="0 0 24 28" fill="none" xmlns="http://www.w3.org/2000/svg">
                    <g clipPath="url(#clip0_127_104)">
                    <path d="M12.0055 7.55374C8.59832 7.55374 5.8501 10.302 5.8501 13.7091C5.8501 17.1162 8.59832 19.8645 12.0055 19.8645C15.4126 19.8645 18.1608 17.1162 18.1608 13.7091C18.1608 10.302 15.4126 7.55374 12.0055 7.55374ZM12.0055 17.7109C9.80367 17.7109 8.00367 15.9162 8.00367 13.7091C8.00367 11.502 9.79831 9.70731 12.0055 9.70731C14.2126 9.70731 16.0072 11.502 16.0072 13.7091C16.0072 15.9162 14.2072 17.7109 12.0055 17.7109ZM19.8483 7.30195C19.8483 8.10017 19.2054 8.73767 18.4126 8.73767C17.6144 8.73767 16.9769 8.09481 16.9769 7.30195C16.9769 6.5091 17.6197 5.86624 18.4126 5.86624C19.2054 5.86624 19.8483 6.5091 19.8483 7.30195ZM23.9251 8.7591C23.834 6.83588 23.3947 5.13231 21.9858 3.72874C20.5822 2.32517 18.8787 1.88588 16.9554 1.78945C14.9733 1.67695 9.03224 1.67695 7.0501 1.78945C5.13225 1.88052 3.42868 2.31981 2.01975 3.72338C0.610825 5.12695 0.176897 6.83052 0.0804686 8.75374C-0.0320312 10.7359 -0.0320312 16.677 0.0804686 18.6591C0.17154 20.5823 0.610825 22.2859 2.01975 23.6895C3.42868 25.093 5.12689 25.5323 7.0501 25.6287C9.03224 25.7412 14.9733 25.7412 16.9554 25.6287C18.8787 25.5377 20.5822 25.0984 21.9858 23.6895C23.3894 22.2859 23.8287 20.5823 23.9251 18.6591C24.0376 16.677 24.0376 10.7412 23.9251 8.7591ZM21.3644 20.7859C20.9465 21.8359 20.1376 22.6448 19.0822 23.068C17.5019 23.6948 13.7519 23.5502 12.0055 23.5502C10.259 23.5502 6.50367 23.6895 4.92868 23.068C3.87868 22.6502 3.06975 21.8412 2.64654 20.7859C2.01975 19.2055 2.16439 15.4555 2.16439 13.7091C2.16439 11.9627 2.02511 8.20731 2.64654 6.63231C3.06439 5.58231 3.87332 4.77338 4.92868 4.35017C6.50903 3.72338 10.259 3.86802 12.0055 3.86802C13.7519 3.86802 17.5072 3.72874 19.0822 4.35017C20.1322 4.76802 20.9412 5.57695 21.3644 6.63231C21.9912 8.21267 21.8465 11.9627 21.8465 13.7091C21.8465 15.4555 21.9912 19.2109 21.3644 20.7859Z" fill="#ffffff"/>
                    </g>
                    <defs>
                    <clipPath id="clip0_127_104">
                        <rect width="24" height="27.4286" fill="white"/>
                    </clipPath>
                    </defs>
                </svg>