<svg width="24" height="22" viewBox="0 0 24 22" fill="none" xmlns="http://www.w3.org/2000/svg">
                    <path d="M22.9024 5.21781C22.6407 4.2324 21.8696 3.45631 20.8906 3.19294C19.116 2.71436 12.0001 2.71436 12.0001 2.71436C12.0001 2.71436 4.88428 2.71436 3.10965 3.19294C2.13061 3.45636 1.35952 4.2324 1.09782 5.21781C0.622314 7.00394 0.622314 10.7305 0.622314 10.7305C0.622314 10.7305 0.622314 14.4571 1.09782 16.2432C1.35952 17.2286 2.13061 17.9724 3.10965 18.2358C4.88428 18.7144 12.0001 18.7144 12.0001 18.7144C12.0001 18.7144 19.116 18.7144 20.8906 18.2358C21.8696 17.9724 22.6407 17.2286 22.9024 16.2432C23.3779 14.4571 23.3779 10.7305 23.3779 10.7305C23.3779 10.7305 23.3779 7.00394 22.9024 5.21781ZM9.67283 14.114V7.34706L15.6203 10.7306L9.67283 14.114Z" fill="#ffffff"/>
                </svg>