<svg width="24" height="25" viewBox="0 0 24 25" fill="none" xmlns="http://www.w3.org/2000/svg">
    <path d="M21.533 7.82595C21.5482 8.03914 21.5482 8.25237 21.5482 8.46556C21.5482 14.9681 16.599 22.4605 7.5533 22.4605C4.76648 22.4605 2.17767 21.6533 0 20.2524C0.395953 20.298 0.776625 20.3133 1.18781 20.3133C3.48727 20.3133 5.60405 19.5366 7.29441 18.2118C5.13197 18.1661 3.31978 16.7498 2.69541 14.8006C3 14.8462 3.30455 14.8767 3.62437 14.8767C4.06598 14.8767 4.50764 14.8158 4.91878 14.7092C2.66498 14.2523 0.974578 12.2727 0.974578 9.8818V9.82091C1.62937 10.1864 2.39086 10.4148 3.19791 10.4452C1.87303 9.56197 1.00505 8.05437 1.00505 6.34878C1.00505 5.43509 1.24866 4.59753 1.67508 3.86656C4.09641 6.85133 7.73602 8.80053 11.8172 9.01377C11.7411 8.64828 11.6954 8.26761 11.6954 7.88689C11.6954 5.1762 13.8883 2.96811 16.6141 2.96811C18.0304 2.96811 19.3095 3.56202 20.208 4.52141C21.3197 4.30822 22.3857 3.89703 23.3299 3.33359C22.9643 4.47575 22.1877 5.43514 21.1674 6.04423C22.1573 5.93769 23.1167 5.66352 23.9999 5.28284C23.33 6.25742 22.4924 7.12541 21.533 7.82595Z" fill="#ffffff"/>
</svg>
